<svg class="icon" viewBox="0 0 1024 1024" xmlns="http://www.w3.org/2000/svg" width="384" height="384"><path d="M128 896h816c8.837 0 16 7.163 16 16v32c0 8.837-7.163 16-16 16H80c-8.837 0-16-7.163-16-16V80c0-8.837 7.163-16 16-16h32c8.837 0 16 7.163 16 16v816zm96-325h48c8.837 0 16 7.163 16 16v220c0 8.837-7.163 16-16 16h-48c-8.837 0-16-7.163-16-16V587c0-8.837 7.163-16 16-16zm360-112h48c8.837 0 16 7.163 16 16v332c0 8.837-7.163 16-16 16h-48c-8.837 0-16-7.163-16-16V475c0-8.837 7.163-16 16-16zM404 248h48c8.837 0 16 7.163 16 16v543c0 8.837-7.163 16-16 16h-48c-8.837 0-16-7.163-16-16V264c0-8.837 7.163-16 16-16zm360-99h48c8.837 0 16 7.163 16 16v642c0 8.837-7.163 16-16 16h-48c-8.837 0-16-7.163-16-16V165c0-8.837 7.163-16 16-16z" /></svg>