<svg class="icon" viewBox="0 0 1024 1024" xmlns="http://www.w3.org/2000/svg" width="200" height="200">
    <path
        d="M376.744 882.48h-181.59c-31.195 0-56.58-26.69-56.58-59.485v-634.34c0-32.79 25.385-59.457 56.58-59.457h567.93c31.195 0 56.568 26.667 56.568 59.457V350.12c0 16.64 12.829 30.124 28.656 30.124 15.832 0 28.66-13.49 28.66-30.124V188.666c0-66.016-51.095-119.734-113.879-119.734H195.154c-62.805 0-113.901 53.712-113.901 119.734v634.329c0 66.027 51.096 119.75 113.901 119.75h181.59c15.837 0 28.666-13.495 28.666-30.14 0-16.636-12.829-30.126-28.666-30.126zm88.216-51.348v105.513h103.52l299.707-308.309-103.52-105.513L464.96 831.132zm482.1-322.17l-62.309-63.51c-10.846-11.059-27.41-11.059-38.256 0l-49.092 50.043 103.514 105.513 46.143-53.063c10.644-11.048 10.644-28.136 0-38.983zm-514.13 73.74H272.918c-15.821 0-28.661 13.483-28.661 30.119 0 16.651 12.84 30.14 28.661 30.14H432.93c15.832 0 28.666-13.489 28.666-30.14 0-16.636-12.834-30.12-28.666-30.12zM710 283.883c0-16.646-12.84-30.13-28.667-30.13H272.918c-15.821 0-28.666 13.49-28.666 30.13 0 16.647 12.84 30.13 28.666 30.13h408.42c15.822 0 28.662-13.489 28.662-30.13zM272.918 412.74c-15.821 0-28.661 13.484-28.661 30.12 0 16.646 12.84 30.13 28.661 30.13h281.816c15.832 0 28.666-13.49 28.666-30.13s-12.834-30.12-28.666-30.12H272.918z" />
</svg>