<svg class="icon" viewBox="0 0 1024 1024" xmlns="http://www.w3.org/2000/svg" width="384" height="384"><path d="M227.01 163.522l55.743-55.74c5.965-5.966 2.41-16.252-5.97-17.268l-203.41-24c-6.473-.755-12.06 4.701-11.303 11.304l24 203.412c1.018 8.38 11.302 11.933 17.267 5.968l55.487-55.487L328.59 401.344c3.936 3.937 10.408 3.937 14.346 0l53.84-53.71c3.936-3.935 3.936-10.409 0-14.345L227.01 163.522zm447.834 237.822c3.935 3.936 10.409 3.936 14.345 0L858.95 231.71l55.49 55.487c5.964 5.965 16.25 2.413 17.267-5.969l24-203.281c.762-6.48-4.7-12.064-11.303-11.302l-203.41 24c-8.383 1.016-11.934 11.296-5.97 17.265l55.742 55.742-169.762 169.504c-3.933 3.937-3.933 10.417 0 14.352l53.839 53.833zm256.864 344.351c-1.017-8.382-11.302-11.932-17.267-5.971l-55.49 55.49-169.76-169.634c-3.938-3.936-10.41-3.936-14.346 0l-53.842 53.71c-3.93 3.937-3.93 10.409 0 14.344l169.764 169.764-55.742 55.743c-5.964 5.965-2.413 16.25 5.97 17.267l203.41 24c6.474.762 12.066-4.7 11.303-11.302L931.71 745.695zM342.934 625.58c-3.938-3.936-10.41-3.936-14.345 0L158.824 795.213l-55.488-55.488c-5.964-5.962-16.25-2.411-17.268 5.97L62.071 948.974c-.757 6.48 4.7 12.066 11.303 11.303l203.41-24c8.38-1.008 11.935-11.297 5.97-17.268l-55.742-55.612 169.762-169.633c3.937-3.937 3.937-10.417 0-14.352l-53.839-53.833zm0 0"/></svg>