<svg class="icon" viewBox="0 0 1024 1024" xmlns="http://www.w3.org/2000/svg" width="384" height="384"><path d="M364.96 180.48c-.978-8.052-10.863-11.474-16.602-5.734l-53.33 53.33L131.84 65.02c-3.782-3.784-10.003-3.784-13.787 0L66.3 116.648c-3.785 3.784-3.785 10.012 0 13.79l163.182 163.181-53.58 53.582c-5.734 5.732-2.319 15.62 5.74 16.598l195.523 23.067c6.222.735 11.59-4.517 10.857-10.864L364.96 180.478zm12.327 455.496l-195.644 23.062c-8.058.976-11.474 10.865-5.74 16.603l53.581 53.577-163.186 162.94c-3.784 3.783-3.784 10.006 0 13.789l51.753 51.625c3.785 3.787 10.007 3.787 13.79 0l163.184-163.055 53.33 53.337c5.74 5.733 15.625 2.318 16.604-5.738l23.062-195.4c.734-6.228-4.51-11.472-10.737-10.74zM647.993 386.74l195.646-23.06c8.058-.979 11.472-10.862 5.74-16.604l-53.58-53.457L958.98 130.561c3.784-3.784 3.784-10.005 0-13.79l-51.753-51.628c-3.784-3.783-10.006-3.783-13.79 0l-163.18 162.933-53.333-53.33c-5.737-5.738-15.625-2.318-16.602 5.734l-23.066 195.404c-.732 6.348 4.511 11.593 10.738 10.857zM795.797 729.1l53.58-53.582c5.733-5.733 2.32-15.62-5.738-16.597l-195.525-23.07c-6.222-.732-11.59 4.518-10.86 10.865l23.064 195.526c.977 8.05 10.863 11.472 16.603 5.732l53.332-53.33 163.184 163.055c3.784 3.786 10.006 3.786 13.789 0l51.753-51.626c3.784-3.784 3.784-10.013 0-13.79L795.798 729.1zm0 0"/></svg>