<svg class="icon" viewBox="0 0 1024 1024" xmlns="http://www.w3.org/2000/svg" width="384" height="384"><path d="M980.96 322.08v347.2L737.44 496l243.52-173.92zm-340 330.4H55.52a34.88 34.88 0 0 1-34.56-34.56 34.88 34.88 0 0 1 34.56-34.72h585.44a34.72 34.72 0 0 1 34.56 34.72 34.72 34.72 0 0 1-34.56 34.56zm0-244.32H55.52a34.88 34.88 0 0 1-34.56-34.72 34.72 34.72 0 0 1 34.56-34.56h585.44a34.56 34.56 0 0 1 34.56 34.56 34.72 34.72 0 0 1-34.56 34.72zM946.4 172.48H55.52a34.72 34.72 0 0 1-34.56-34.56 34.88 34.88 0 0 1 34.56-34.72H946.4a34.72 34.72 0 0 1 34.56 34.72 34.56 34.56 0 0 1-34.56 34.56zm0 715.52H55.52a34.72 34.72 0 0 1-34.56-34.56 34.72 34.72 0 0 1 34.56-34.56H946.4a34.56 34.56 0 0 1 34.56 34.56A34.56 34.56 0 0 1 946.4 888z"/></svg>