<svg class="icon" viewBox="0 0 1024 1024" xmlns="http://www.w3.org/2000/svg" width="384" height="384"><path d="M32 669.28v-347.2L275.52 496 32 669.28zm340-330.4h585.44A34.56 34.56 0 0 1 992 373.44a34.72 34.72 0 0 1-34.56 34.72H372a34.72 34.72 0 0 1-34.56-34.72A34.56 34.56 0 0 1 372 338.88zm0 244.32h585.44A34.72 34.72 0 0 1 992 617.92a34.72 34.72 0 0 1-34.56 34.56H372a34.72 34.72 0 0 1-34.56-34.56A34.72 34.72 0 0 1 372 583.2zM66.56 818.88h890.88A34.56 34.56 0 0 1 992 853.44 34.56 34.56 0 0 1 957.44 888H66.56A34.56 34.56 0 0 1 32 853.44a34.56 34.56 0 0 1 34.56-34.56zm0-715.68h890.88A34.72 34.72 0 0 1 992 137.92a34.56 34.56 0 0 1-34.56 34.56H66.56A34.56 34.56 0 0 1 32 137.92a34.72 34.72 0 0 1 34.56-34.72z"/></svg>