<svg class="icon" viewBox="0 0 1024 1024" xmlns="http://www.w3.org/2000/svg" width="200" height="200"><path d="M512 890.432c18.432 0 33.408 14.976 33.408 33.408v66.752a33.408 33.408 0 0 1-66.816 0V923.84c0-18.432 14.976-33.408 33.408-33.408zM244.48 779.584a33.408 33.408 0 0 1 0 47.232l-47.296 47.232a33.408 33.408 0 0 1-47.232-47.232l47.232-47.232a33.408 33.408 0 0 1 47.232 0zm582.336 0l47.232 47.232a33.408 33.408 0 0 1-47.232 47.232l-47.232-47.232a33.408 33.408 0 1 1 47.232-47.232zM512 200.32a311.68 311.68 0 1 1 0 623.296 311.68 311.68 0 0 1 0-623.36zm0 66.752a244.864 244.864 0 1 0 0 489.728 244.864 244.864 0 0 0 0-489.728zm-411.84 211.52a33.408 33.408 0 1 1 0 66.816H33.408a33.408 33.408 0 0 1 0-66.816h66.752zm890.432 0a33.408 33.408 0 0 1 0 66.816H923.84a33.408 33.408 0 1 1 0-66.816h66.752zm-793.408-328.64l47.232 47.232a33.408 33.408 0 1 1-47.232 47.232l-47.232-47.232a33.408 33.408 0 0 1 47.232-47.232zm676.864 0a33.408 33.408 0 0 1 0 47.232l-47.232 47.232a33.408 33.408 0 1 1-47.232-47.232l47.232-47.232a33.408 33.408 0 0 1 47.232 0zM512 0c18.432 0 33.408 14.976 33.408 33.408v66.752a33.408 33.408 0 1 1-66.816 0V33.408C478.592 14.976 493.568 0 512 0z"/></svg>