<svg class="icon" viewBox="0 0 1024 1024" xmlns="http://www.w3.org/2000/svg" width="200" height="200"><path d="M576.39 1024a522.304 522.304 0 0 1-337.63-920.202A513.161 513.161 0 0 1 425.471 2.178a52.251 52.251 0 0 1 55.557 17.23 52.251 52.251 0 0 1 4.782 57.736 466.466 466.466 0 0 0 4.22 462.247 470.123 470.123 0 0 0 425.114 235.026 52.251 52.251 0 0 1 48.806 30.31c9.142 18.987 5.977 41.702-8.088 57.455A520.264 520.264 0 0 1 576.39 1023.93zM440.662 51.827c-61.886 18.637-119.2 49.931-168.217 91.915a470.123 470.123 0 1 0 644.528 681.66 522.304 522.304 0 0 1-471.88-261.187 518.647 518.647 0 0 1-4.571-512.317z"/></svg>