<svg class="icon" viewBox="0 0 1024 1024" xmlns="http://www.w3.org/2000/svg" width="200" height="200"><path d="M810.667 213.333a42.667 42.667 0 0 1 42.368 37.675l.298 4.992v274.304c0 79.275-50.944 147.499-120.49 152.107l-7.51.256H273.707l97.792 97.834a42.667 42.667 0 0 1-56.32 63.872l-4.011-3.541-170.667-170.667a42.667 42.667 0 0 1 0-60.33l170.667-170.667a42.667 42.667 0 0 1 63.872 56.32l-3.541 4.01-97.792 97.835h451.626c19.584 0 39.936-24.618 42.411-59.861l.256-7.168V256a42.667 42.667 0 0 1 42.667-42.667z" /></svg>